<svg version="1.1" xmlns="http://www.w3.org/2000/svg" xmlns:xlink="http://www.w3.org/1999/xlink" width="50.25029" height="46.57342" viewBox="0,0,50.25029,46.57342"><g transform="translate(-582.06193,-11.97184)"><g data-paper-data="{&quot;isPaintingLayer&quot;:true}" fill-rule="nonzero" stroke="none" stroke-linecap="butt" stroke-linejoin="miter" stroke-miterlimit="10" stroke-dasharray="" stroke-dashoffset="0" style="mix-blend-mode: normal"><g><path d="M582.06193,58.54525v-46.5734h50.25029v46.57342z" fill-opacity="0.43922" fill="#000000" stroke-width="0"/><path d="M613.75614,52.36269c-0.5568,-2.22719 1.6704,-2.78399 1.6704,-2.78399l0.53024,-0.05173c6.46876,-3.47496 10.24086,-16.20222 2.15032,-20.48903c-5.1663,-2.73738 -10.79094,-0.98761 -16.24095,-0.26053c0,0 -2.27559,0.30341 -2.579,-1.97218c-0.30341,-2.27559 1.97218,-2.57901 1.97218,-2.57901c6.49253,-0.86517 13.01284,-2.62316 19.13033,0.82782c11.20419,6.32048 7.28559,23.08204 -2.20307,28.4866l-1.64646,0.49245c0,0 -2.22719,0.55679 -2.78399,-1.67039z" fill="#ffffff" stroke-width="0.5"/><path d="M599.49684,35.21958c-1.09932,2.01541 -3.11473,0.91609 -3.11473,0.91609l-2.87132,-1.57079c-1.00231,-0.4163 -2.13363,-0.60452 -3.00696,-1.24891c-1.25671,-0.92726 -2.56137,-1.97116 -3.25415,-3.37087c-2.88648,-5.83184 5.53593,-10.22077 8.96807,-13.31227c0,0 1.70641,-1.53576 3.24217,0.17064c1.53576,1.70641 -0.17064,3.24217 -0.17064,3.24217c-0.92769,0.83426 -1.82886,1.699 -2.78308,2.50278c-2.05574,1.73165 -7.79597,4.3337 -3.47481,6.93441c0.74414,0.44786 1.62319,0.61852 2.43478,0.92778l3.11458,1.69425c0,0 2.01542,1.09932 0.91609,3.11473z" fill="#ffffff" stroke-width="0.5"/></g></g></g></svg>