<svg version="1.1" xmlns="http://www.w3.org/2000/svg" xmlns:xlink="http://www.w3.org/1999/xlink" width="549.62678" height="234.63621" viewBox="0,0,549.62678,234.63621"><g transform="translate(-59.85995,-66.70697)"><g data-paper-data="{&quot;isPaintingLayer&quot;:true}" fill="#000000" fill-rule="nonzero" stroke="none" stroke-linecap="butt" stroke-linejoin="miter" stroke-miterlimit="10" stroke-dasharray="" stroke-dashoffset="0" style="mix-blend-mode: normal"><text transform="translate(124.41333,189.76875) scale(0.8467,0.8467)" font-size="40" xml:space="preserve" fill="#000000" fill-rule="nonzero" stroke="none" stroke-width="1" stroke-linecap="butt" stroke-linejoin="miter" stroke-miterlimit="10" stroke-dasharray="" stroke-dashoffset="0" font-family="&quot;CONSOLA&quot;, Sans Serif" font-weight="normal" text-anchor="start" style="mix-blend-mode: normal"><tspan x="0" dy="0">Fight the Corruption!</tspan></text><path d="M83.9331,143.96399c0,-2.5 2.5,-2.5 2.5,-2.5h0.33867c4.12015,0 8.64653,0.34601 12.75532,0.0128c7.77831,-0.63079 15.26209,-3.53705 23.15038,-4.01231c10.96663,-0.66073 22.1661,-0.00453 33.15835,-0.00453c0,0 2.5,0 2.5,2.5c0,2.5 -2.5,2.5 -2.5,2.5c-10.89138,0 -21.99222,-0.65916 -32.85765,-0.00453c-7.8212,0.47122 -15.22424,3.35159 -22.94571,3.99576c-4.2688,0.35613 -8.97322,0.0128 -13.26068,0.0128h-0.33867c0,0 -2.5,0 -2.5,-2.5z" stroke-width="0.5"/><path d="M556.06688,245.39873c0,2.5 -2.5,2.5 -2.5,2.5h-2.01201c-6.32529,0 -12.40088,0.09008 -18.60023,-1.40583c-3.23039,-0.7795 -5.74502,-2.21272 -9.07483,-2.61676c-6.33359,-0.76851 -13.3082,0.0186 -19.69564,0.0186c0,0 -2.5,0 -2.5,-2.5c0,-2.5 2.5,-2.5 2.5,-2.5c6.58686,0 13.77347,-0.78996 20.30436,0.0186c4.78005,0.59179 5.21264,1.64681 9.65061,2.7219c5.8012,1.40533 11.49631,1.2635 17.41572,1.2635h2.01201c0,0 2.5,0 2.5,2.5z" stroke-width="0.5"/><path d="M294.47199,119.93996c0,2.5 -2.5,2.5 -2.5,2.5h-2.66933c-4.53084,-0.00039 -8.26945,-0.23232 -12.69631,-1.43018c-5.40921,-1.46367 -10.87373,-4.41176 -16.39447,-5.27306c-3.16659,-0.49402 -6.40974,0.02988 -9.61463,0.02988c0,0 -2.5,0 -2.5,-2.5c0,-2.5 2.5,-2.5 2.5,-2.5c0.48072,0 10.13457,-0.00925 10.38537,0.02988c7.34132,1.14533 14.09283,5.48869 21.49786,6.5446c0.84347,0.12027 5.44735,0.099 6.82219,0.09888h2.66933c0,0 2.5,0 2.5,2.5z" stroke-width="0.5"/><path d="M131.54911,251.41422c-0.67683,2.40664 -3.08347,1.72981 -3.08347,1.72981l-1.01564,-0.28563c-1.71487,-0.49086 -3.51233,-0.75327 -5.1446,-1.47259c-3.03928,-1.33937 -5.40172,-3.96865 -8.46021,-5.26354c-1.41595,-0.59948 -3.00994,-0.64651 -4.48237,-1.08949c-1.1614,-0.3494 -2.19182,-1.28818 -3.40463,-1.28328c-0.49471,0.002 -0.7304,0.80542 -0.71615,1.29993c0.03361,1.16674 0.35309,2.3411 0.85144,3.39659c0.71897,1.52277 1.83492,2.82419 2.75238,4.23628c-0.06285,0.73805 -0.61795,1.61059 -0.18854,2.21414c0.63197,0.88827 1.94596,0.9887 2.87408,1.56053c1.41896,0.87426 2.78434,1.83295 4.16025,2.7735c1.17647,0.80422 2.19469,1.88018 3.4963,2.4604c2.06325,0.91973 4.51691,-0.11404 6.77587,-0.11717c3.16298,-0.00438 6.39376,0.65043 9.48894,-0.00095c4.08618,-0.85994 8.59361,-3.75028 12.0105,-6.03381c4.65882,-3.11352 9.33645,-5.34132 11.35329,-10.97088c1.43635,-4.00925 1.1977,-9.66807 1.19263,-13.85067c0,0 0,-2.5 2.5,-2.5c2.5,0 2.5,2.5 2.5,2.5c-0.0054,4.76066 0.14983,10.95749 -1.4767,15.51201c-2.4148,6.76178 -7.67258,9.72985 -13.29572,13.4698c-3.94847,2.62612 -9.04709,5.77778 -13.75541,6.76661c-0.58279,0.1224 -9.66587,0.10672 -10.5106,0.10789c-2.74299,0.00381 -5.67822,0.91385 -8.22841,-0.09637c-1.77486,-0.70308 -3.22522,-2.04368 -4.8242,-3.08661c-1.07564,-0.70158 -8.0482,-5.27756 -8.6692,-6.135c-0.61203,-0.84505 -0.1257,-2.08301 -0.18854,-3.12451c-0.86211,-1.25726 -2.06611,-2.33884 -2.58632,-3.77179c-1.33932,-3.68926 -2.58436,-9.33077 2.80462,-11.31943c2.00126,-0.73851 4.21135,0.69333 6.2968,1.14206c6.84658,1.47321 11.55119,6.02361 18.22817,7.86305l1.01564,0.28563c0,0 2.40664,0.67683 1.72981,3.08347z" stroke-width="0.5"/><path d="M592.10292,184.00401c0,2.5 -2.5,2.5 -2.5,2.5h-4.02402c-6.68447,0 -13.57515,0.46863 -20.24042,-0.01159c-9.21009,-0.66357 -18.18015,-4.45075 -27.3707,-5.3387c-3.23812,-0.31285 -6.50639,0.01159 -9.75958,0.01159c0,0 -2.5,0 -2.5,-2.5c0,-2.5 2.5,-2.5 2.5,-2.5c0.30745,0 10.08235,-0.00369 10.24042,0.01159c9.18644,0.88755 18.17138,4.70532 27.3707,5.3387c6.50945,0.44818 13.23219,-0.01159 19.75958,-0.01159h4.02402c0,0 2.5,0 2.5,2.5z" stroke-width="0.5"/><path d="M60.17301,68.10451c1.11804,-2.23607 3.3541,-1.11803 3.3541,-1.11803c4.47213,2.23607 9.67137,4.83569 14.14351,7.07176c7.02491,3.51246 13.97103,7.29162 21.21188,10.33668c5.77641,2.4292 11.16556,5.06873 17.67358,3.7492c1.10404,-0.22385 1.91753,-1.23321 2.99223,-1.57088c0.99658,-0.31312 2.24255,0.22745 3.11449,-0.34782c0.56966,-0.37584 -1.42967,-0.0236 -2.01193,-0.3796c-1.28606,-0.78631 -2.12857,-2.1863 -3.42969,-2.94744c-6.86594,-4.01652 -15.35592,-3.81724 -23.0064,-4.51273c0,0 -2.48973,-0.22634 -2.26339,-2.71607c0.22634,-2.48973 2.71607,-2.26339 2.71607,-2.26339c8.44669,0.76788 17.51407,0.7321 25.08287,5.17903c1.08219,0.63583 8.27053,6.66017 7.86383,8.33588c-0.56141,2.31324 -3.80172,2.87804 -5.8298,4.12429c-2.80176,1.72168 -6.36544,2.02667 -9.65391,2.03186c-1.83158,0.00289 -3.69913,0.3129 -5.49452,-0.0494c-0.31854,-0.06428 -9.13471,-3.78946 -9.69243,-4.0242c-7.3415,-3.09002 -14.38559,-6.91157 -21.50897,-10.47327c-4.47213,-2.23607 -8.94427,-4.47214 -13.4164,-6.70821l-0.7271,-0.36355c0,0 -2.23607,-1.11804 -1.11803,-3.3541z" stroke-width="0.5"/><path d="M609.32538,83.35978c-0.79056,2.37171 -3.16227,1.58115 -3.16227,1.58115l-3.26465,-1.0882c-4.74327,-1.61815 -7.61779,-1.45283 -12.63823,-1.45283c-10.06873,0 -19.77067,-1.365 -29.78031,-2.36596c-19.41315,-1.94131 -38.6702,-4.24272 -57.98397,-7.00185c0,0 -2.47487,-0.35356 -2.12132,-2.82843c0.35356,-2.47487 2.82843,-2.12132 2.82843,-2.12132c19.2444,2.74922 38.43095,5.04208 57.77438,6.97641c9.84484,0.98448 19.38346,2.34115 29.28279,2.34115c5.48771,0 8.95947,-0.009 14.21936,1.70941l3.26465,1.0882c0,0 2.37171,0.79056 1.58115,3.16227z" stroke-width="0.5"/><path d="M324.23106,300.73761c-1.95217,1.56174 -3.51391,-0.39043 -3.51391,-0.39043l-2.21518,-2.76897c-0.81271,-1.10361 -1.31917,-2.51938 -2.43813,-3.31082c-0.7207,-0.50975 -1.76034,-0.14865 -2.63378,-0.27652c-1.66174,-0.24327 -3.31674,-0.53233 -4.96843,-0.8364c-4.92728,-0.9071 -9.83358,-1.96608 -14.74636,-2.949c-12.47436,-2.49578 -24.62383,-6.6296 -37.10843,-9.01033c-6.4636,-1.23257 -13.16287,-1.7511 -19.68667,-2.62094c0,0 -2.47807,-0.33041 -2.14766,-2.80848c0.33041,-2.47807 2.80848,-2.14766 2.80848,-2.14766c6.61639,0.88218 13.40694,1.41549 19.96245,2.66558c12.5005,2.38376 24.66278,6.52188 37.15242,9.01893c4.88789,0.97724 9.76887,2.03206 14.67105,2.93454c0.20223,0.03723 8.76056,1.40851 9.23059,1.71976c1.63805,1.0847 2.53921,2.99858 3.80882,4.49787l2.21518,2.76897c0,0 1.56174,1.95217 -0.39043,3.51391z" stroke-width="0.5"/></g></g></svg>